<svg width="1440" height="878" viewBox="0 0 1440 878" fill="none" xmlns="http://www.w3.org/2000/svg">
<g clip-path="url(#clip0_6089_43)">
<line x1="727.948" y1="889.988" x2="1530.66" y2="438.118" stroke="#572700" stroke-opacity="0.09" stroke-width="1.11024"/>
<line x1="727.992" y1="890.494" x2="1530.7" y2="528.026" stroke="#572700" stroke-opacity="0.09" stroke-width="1.11024"/>
<line x1="728.031" y1="890.478" x2="1530.74" y2="597.955" stroke="#572700" stroke-opacity="0.09" stroke-width="1.11024"/>
<line x1="728.079" y1="890.463" x2="1530.79" y2="678.988" stroke="#572700" stroke-opacity="0.09" stroke-width="1.11024"/>
<line x1="728.121" y1="890.454" x2="1530.83" y2="744.483" stroke="#572700" stroke-opacity="0.09" stroke-width="1.11024"/>
<line x1="728.16" y1="890.448" x2="1530.87" y2="802.21" stroke="#572700" stroke-opacity="0.09" stroke-width="1.11024"/>
<line x1="728.19" y1="890.446" x2="1530.9" y2="846.618" stroke="#572700" stroke-opacity="0.09" stroke-width="1.11024"/>
<line x1="727.907" y1="890.542" x2="1527.28" y2="343.773" stroke="#572700" stroke-opacity="0.09" stroke-width="1.11024"/>
<line x1="727.86" y1="890.578" x2="1530.57" y2="202.808" stroke="#572700" stroke-opacity="0.09" stroke-width="1.11024"/>
<line x1="727.808" y1="890.628" x2="1509.42" y2="22.9986" stroke="#572700" stroke-opacity="0.09" stroke-width="1.11024"/>
<line x1="727.766" y1="890.681" x2="1369.49" y2="-23.5791" stroke="#572700" stroke-opacity="0.09" stroke-width="1.11024"/>
<line x1="727.733" y1="890.735" x2="1240.67" y2="-54.6118" stroke="#572700" stroke-opacity="0.09" stroke-width="1.11024"/>
<line x1="727.699" y1="890.81" x2="1084.09" y2="-85.6243" stroke="#572700" stroke-opacity="0.09" stroke-width="1.11024"/>
<line x1="727.679" y1="890.878" x2="949.728" y2="-97.7682" stroke="#572700" stroke-opacity="0.09" stroke-width="1.11024"/>
<line x1="727.668" y1="890.945" x2="825.37" y2="-97.7012" stroke="#572700" stroke-opacity="0.09" stroke-width="1.11024"/>
<line x1="727.666" y1="891" x2="727.666" y2="-106" stroke="#572700" stroke-opacity="0.09" stroke-width="1.11024"/>
<line y1="-0.555122" x2="921.154" y2="-0.555122" transform="matrix(-0.871415 -0.490547 -0.490547 0.871415 723.779 890.471)" stroke="#572700" stroke-opacity="0.09" stroke-width="1.11024"/>
<line y1="-0.555122" x2="880.751" y2="-0.555122" transform="matrix(-0.91139 -0.411545 -0.411545 0.91139 723.779 891)" stroke="#572700" stroke-opacity="0.09" stroke-width="1.11024"/>
<line y1="-0.555122" x2="854.347" y2="-0.555122" transform="matrix(-0.939557 -0.342394 -0.342394 0.939557 723.779 891)" stroke="#572700" stroke-opacity="0.09" stroke-width="1.11024"/>
<line y1="-0.555122" x2="830.097" y2="-0.555122" transform="matrix(-0.967004 -0.25476 -0.25476 0.967004 723.779 891)" stroke="#572700" stroke-opacity="0.09" stroke-width="1.11024"/>
<line y1="-0.555122" x2="815.871" y2="-0.555122" transform="matrix(-0.983865 -0.178914 -0.178914 0.983865 723.779 891)" stroke="#572700" stroke-opacity="0.09" stroke-width="1.11024"/>
<line y1="-0.555122" x2="807.542" y2="-0.555122" transform="matrix(-0.994012 -0.109267 -0.109267 0.994012 723.779 891)" stroke="#572700" stroke-opacity="0.09" stroke-width="1.11024"/>
<line y1="-0.555122" x2="803.903" y2="-0.555122" transform="matrix(-0.998513 -0.0545192 -0.0545192 0.998513 723.779 891)" stroke="#572700" stroke-opacity="0.09" stroke-width="1.11024"/>
<line y1="-0.555122" x2="968.483" y2="-0.555122" transform="matrix(-0.82539 -0.564562 -0.564562 0.82539 723.779 891)" stroke="#572700" stroke-opacity="0.09" stroke-width="1.11024"/>
<line y1="-0.555122" x2="1057.06" y2="-0.555122" transform="matrix(-0.75938 -0.650647 -0.650647 0.75938 723.779 891)" stroke="#572700" stroke-opacity="0.09" stroke-width="1.11024"/>
<line y1="-0.555122" x2="1167.78" y2="-0.555122" transform="matrix(-0.669317 -0.742977 -0.742977 0.669317 723.779 891)" stroke="#572700" stroke-opacity="0.09" stroke-width="1.11024"/>
<line y1="-0.555122" x2="1117" y2="-0.555122" transform="matrix(-0.574507 -0.8185 -0.8185 0.574507 723.779 891)" stroke="#572700" stroke-opacity="0.09" stroke-width="1.11024"/>
<line y1="-0.555122" x2="1075.54" y2="-0.555122" transform="matrix(-0.476909 -0.878953 -0.878953 0.476909 723.779 891)" stroke="#572700" stroke-opacity="0.09" stroke-width="1.11024"/>
<line y1="-0.555122" x2="1039.44" y2="-0.555122" transform="matrix(-0.342866 -0.939384 -0.939384 0.342866 723.779 891)" stroke="#572700" stroke-opacity="0.09" stroke-width="1.11024"/>
<line y1="-0.555122" x2="1013.28" y2="-0.555122" transform="matrix(-0.21914 -0.975694 -0.975694 0.21914 723.779 891)" stroke="#572700" stroke-opacity="0.09" stroke-width="1.11024"/>
<line y1="-0.555122" x2="993.462" y2="-0.555122" transform="matrix(-0.0983445 -0.995152 -0.995152 0.0983445 723.779 891)" stroke="#572700" stroke-opacity="0.09" stroke-width="1.11024"/>
</g>
<defs>
<clipPath id="clip0_6089_43">
<rect width="1440" height="878" fill="white"/>
</clipPath>
</defs>
</svg>
